<?xml version="1.0" encoding="UTF-8"?>
<svg id="Layer_1" data-name="Layer 1" xmlns="http://www.w3.org/2000/svg" xmlns:xlink="http://www.w3.org/1999/xlink" viewBox="0 0 303.95 100">
  <defs>
    <linearGradient id="linear-gradient" x1="135.45" y1="-4.97" x2="229.07" y2="306.48" gradientUnits="userSpaceOnUse">
      <stop offset="0" stop-color="#b8ff5c"/>
      <stop offset="1" stop-color="#6affd3"/>
    </linearGradient>
  </defs>
  <rect x="0" y="0" width="303.95" height="100" style="fill: url(#linear-gradient);"/>
  <g>
    <g>
      <path d="m36.58,34.15l3.67,9.86,11.4,30.64c1.1,2.95,3.52,5.33,6.6,6.01,2.58.57,5.1-.03,7.07-1.4,1.47-1.04,2.63-2.51,3.28-4.26l18.66-50.92h0c-8.2,0-15.5,5.2-18.19,12.95l-8.97,25.88-5.36-15.78c-1.75-5.12-5.53-9.13-10.26-11.27-2.43-1.1-5.11-1.7-7.89-1.7Z" style="fill: #0f1f35;"/>
      <g style="opacity: .99;">
        <path d="m41.15,36.1c-.5,1.36-1.55,2.21-2.6,3.04-1.15.91-2.57,1.52-3.11,2.68-.36,1.52.57,2.84,1.7,3.79,1.08.9,2.41,1.34,3.92.94,1.19-.32,2.51-.92,3.47-2.46.56-.7.34-2.53-.23-4.2-.54-1.58-1.26-3.14-1.46-3.9,0,0-1.01-.28-1.69.12Z" style="fill: #ff2caa;"/>
        <path d="m40.63,34.37c-1.45-.02-2.67-.67-3.81-1.39-1.24-.78-2.37-1.73-3.64-1.85-1.56.16-2.5,1.42-3.01,2.8s-.61,2.82.28,4.12c.69,1.02,1.84,1.97,3.62,2.36.85.29,2.4-.64,3.79-1.74,1.31-1.04,2.56-2.24,3.21-2.68,0,0,.17-1.1-.43-1.61Z" style="fill: #ff2caa;"/>
        <path d="m42.07,33.53c-.4-1.4.05-2.71.41-4.01.4-1.41.82-2.85.58-4.11-.6-1.44-2.13-2.18-3.6-2.28-1.41-.1-2.78.53-3.77,1.75-.78.96-1.06,2.22-.92,4.04-.04.9.86,2.17,2.31,3.19,1.37.96,2.97,1.68,3.58,2.18,0,0,1.09-.04,1.41-.75Z" style="fill: #ff2caa;"/>
        <path d="m43.21,34.82c1.24-.76,2.65-1.37,3.99-1.37,1.46,0,2.77.22,3.91-.36,1.23-.97,1.55-2.3,1.25-3.74s-1.04-2.71-2.48-3.33c-1.13-.49-2.58-.56-4.29.07-.88.21-1.79,1.69-2.37,3.36-.55,1.58-.74,3.35-1.05,4.07,0,0,.26,1.19,1.04,1.3Z" style="fill: #ff2caa;"/>
        <path d="m42.77,35.97c1.15.91,1.65,2.17,2.11,3.42.51,1.37.98,2.52,1.93,3.39,1.18.65,4.56,1.52,5.6-1.41,1.13-1.42.82-4.09-.58-5.7-1.14-1.31-3.13-1.79-5.56-1-2.29.14-3-.66-3.5,1.3Z" style="fill: #ff2caa;"/>
        <path d="m43.56,32.93c-2.57-2.14-6.01,1.76-3.36,4.43,2.54,1.46,5.88-2.13,3.36-4.43Z" style="fill: #0f1f35;"/>
      </g>
      <g style="opacity: .99;">
        <path d="m73.5,62.34c.38-1.25,1.3-2.06,2.21-2.86.99-.87,1.98-1.58,2.41-2.65.25-1.39-.62-2.18-1.68-2.97s-1.9-1.01-3.25-.58c-1.06.34-2.01.78-2.79,2.22-.47.66-.47,2.08.12,3.56.57,1.4.93,2.89,1.15,3.57,0,0,1.24.1,1.83-.29Z" style="fill: #c24dff;"/>
        <path d="m74.03,64.04c1.31-.09,2.31.55,3.38,1.12,1.17.62,2.45,1.18,3.6,1.2,1.39-.26,1.82-1.67,2.18-2.95s.51-2.37-.37-3.47c-.7-.87-1.59-2.1-3.22-2.32-.79-.2-1.99,1.29-3.16,2.37-1.11,1.03-2.15,2.22-2.71,2.66,0,0-.29.98.29,1.4Z" style="fill: #c24dff;"/>
        <path d="m72.91,64.7c.49,1.22.16,2.45-.05,3.64-.22,1.3-.73,2.75-.39,3.86.67,1.24,2.37,1.51,3.7,1.46s2.69-.44,3.46-1.62c.61-.93.59-2.26.3-3.88-.05-.81-1.16-1.67-2.55-2.45-1.32-.74-2.75-1.39-3.34-1.78,0,0-.91.09-1.13.77Z" style="fill: #c24dff;"/>
        <path d="m71.79,63.8c-1.07.76-2.37,1.41-3.58,1.48-1.32.08-2.62-.39-3.62.19-1.05.94-1.22,2.31-.87,3.59s1.16,2.3,2.49,2.78c1.05.38,2.27.26,3.77-.4.78-.24,1.92-1.37,2.35-2.91.41-1.46.37-3.07.61-3.74,0,0-.45-.95-1.16-1Z" style="fill: #c24dff;"/>
        <path d="m71.87,62.62c-1.12-.71-1.21-2.01-1.74-3.09-.58-1.19-1.58-1.76-2.5-2.46-1.12-.48-4.27-1.29-4.94,1.44-.89,1.38-.28,3.91,1.12,5.23,1.14,1.08,3.16,1.58,5.27.65,2.04-.33,2.51.04,2.79-1.77Z" style="fill: #c24dff;"/>
        <path d="m71.58,65.39c2.51,1.68,5.23-2.14,2.61-4.29-2.42-1.08-5.08,2.46-2.61,4.29Z" style="fill: #0f1f35;"/>
      </g>
    </g>
    <g>
      <g>
        <path d="m110.24,54.03l-7.11-16.13h4.81l5.11,13.29h-2.37l5.11-13.29h4.68l-7.08,16.13h-3.14Z" style="fill: #0f1f35;"/>
        <path d="m124.67,35.29c-.71,0-1.3-.24-1.77-.72-.47-.48-.7-1.07-.7-1.79s.23-1.28.7-1.77c.47-.49,1.06-.74,1.77-.74s1.33.25,1.79.74c.46.49.68,1.08.68,1.77s-.23,1.31-.68,1.79c-.46.48-1.05.72-1.79.72Zm-2.24,18.74v-16.13h4.44v16.13h-4.44Z" style="fill: #0f1f35;"/>
        <path d="m130.75,54.03v-16.13h4.38v16.13h-4.38Zm10.82,0v-9.25c0-.96-.3-1.74-.9-2.34-.6-.6-1.37-.9-2.3-.9-.62,0-1.18.13-1.67.4-.49.27-.87.65-1.15,1.15s-.42,1.06-.42,1.69l-1.7-.9c0-1.25.27-2.34.82-3.29s1.3-1.69,2.27-2.22c.97-.54,2.06-.8,3.29-.8s2.27.29,3.19.88c.92.59,1.65,1.36,2.19,2.3.53.95.8,1.95.8,3.02v10.25h-4.41Z" style="fill: #0f1f35;"/>
        <path d="m157.23,54.39c-1.69,0-3.2-.37-4.53-1.1-1.33-.74-2.37-1.74-3.12-3.01-.76-1.27-1.14-2.72-1.14-4.34s.37-3.04,1.12-4.31c.75-1.27,1.76-2.27,3.06-3.01,1.29-.73,2.74-1.1,4.34-1.1,1.51,0,2.87.34,4.07,1.04s2.14,1.65,2.81,2.87,1,2.62,1,4.17c0,.29-.01.58-.03.88-.02.3-.08.63-.17.99l-13.59.03v-3.27l11.56-.03-1.8,1.37c-.02-.96-.19-1.76-.5-2.41-.31-.65-.75-1.13-1.3-1.47s-1.25-.5-2.07-.5c-.87,0-1.63.19-2.27.57-.65.38-1.14.92-1.49,1.62-.34.7-.52,1.53-.52,2.49s.18,1.83.55,2.56c.37.72.9,1.27,1.59,1.65.69.38,1.49.57,2.4.57.82,0,1.57-.13,2.24-.4.67-.27,1.25-.69,1.74-1.27l2.61,2.6c-.82.94-1.79,1.64-2.91,2.1s-2.33.7-3.64.7Z" style="fill: #0f1f35;"/>
        <path d="m165.98,41.74v-3.84h12.89v3.84h-12.89Zm3.71,12.29v-17.87c0-1.27.28-2.41.85-3.41.57-1,1.36-1.79,2.39-2.37s2.23-.87,3.61-.87c1.05,0,1.95.17,2.71.52.76.35,1.45.85,2.07,1.52l-2.8,2.77c-.22-.25-.48-.43-.79-.57s-.67-.2-1.12-.2c-.8,0-1.42.22-1.85.65s-.65,1.05-.65,1.85v17.97h-4.41Z" style="fill: #0f1f35;"/>
        <path d="m181.61,54.03v-24.15h4.38v24.15h-4.38Z" style="fill: #0f1f35;"/>
        <path d="m197.41,54.39c-1.63,0-3.09-.37-4.39-1.12-1.3-.75-2.33-1.76-3.09-3.04-.76-1.28-1.14-2.72-1.14-4.32s.38-3,1.14-4.26c.76-1.26,1.79-2.26,3.09-3.01,1.3-.75,2.77-1.12,4.39-1.12s3.12.37,4.42,1.1c1.3.74,2.34,1.74,3.11,3.01.77,1.27,1.15,2.69,1.15,4.28s-.38,3.02-1.13,4.31c-.76,1.29-1.79,2.31-3.11,3.06-1.31.75-2.79,1.12-4.44,1.12Zm0-4.11c.82,0,1.55-.19,2.19-.57.63-.38,1.12-.89,1.47-1.54.35-.65.52-1.39.52-2.24s-.18-1.59-.55-2.24c-.37-.65-.86-1.15-1.47-1.52-.61-.37-1.33-.55-2.15-.55s-1.51.18-2.14.55c-.62.37-1.11.87-1.45,1.52-.35.65-.52,1.39-.52,2.24s.17,1.59.52,2.24c.34.65.83,1.16,1.45,1.54.62.38,1.34.57,2.14.57Z" style="fill: #0f1f35;"/>
        <path d="m212.77,54.03l-6.01-16.13h4.41l3.91,11.72-1.3.03,4.04-11.76h3.14l4.07,11.76-1.3-.03,3.91-11.72h4.41l-6.01,16.13h-3.17l-4.04-11.12h1.24l-4.11,11.12h-3.17Z" style="fill: #0f1f35;"/>
        <path d="m241.53,54.39c-1.69,0-3.2-.37-4.53-1.1-1.33-.74-2.37-1.74-3.12-3.01-.76-1.27-1.14-2.72-1.14-4.34s.37-3.04,1.12-4.31c.75-1.27,1.76-2.27,3.06-3.01,1.29-.73,2.74-1.1,4.34-1.1,1.51,0,2.87.34,4.07,1.04s2.14,1.65,2.81,2.87,1,2.62,1,4.17c0,.29-.01.58-.03.88-.02.3-.08.63-.17.99l-13.59.03v-3.27l11.56-.03-1.8,1.37c-.02-.96-.19-1.76-.5-2.41-.31-.65-.75-1.13-1.3-1.47s-1.25-.5-2.07-.5c-.87,0-1.63.19-2.27.57-.65.38-1.14.92-1.49,1.62-.34.7-.52,1.53-.52,2.49s.18,1.83.55,2.56c.37.72.9,1.27,1.59,1.65.69.38,1.49.57,2.4.57.82,0,1.57-.13,2.24-.4.67-.27,1.25-.69,1.74-1.27l2.61,2.6c-.82.94-1.79,1.64-2.91,2.1s-2.33.7-3.64.7Z" style="fill: #0f1f35;"/>
        <path d="m251.88,54.03v-16.13h4.38v16.13h-4.38Zm4.38-8.88l-1.7-1.17c.2-1.98.78-3.54,1.74-4.69.96-1.15,2.34-1.72,4.14-1.72.8,0,1.51.13,2.12.38.61.26,1.17.67,1.69,1.25l-2.74,3.17c-.25-.29-.54-.5-.88-.62-.35-.12-.74-.18-1.19-.18-.94,0-1.7.29-2.29.87s-.88,1.48-.88,2.71Z" style="fill: #0f1f35;"/>
      </g>
      <g>
        <path d="m109.59,70.71c-.66,0-1.25-.16-1.78-.49-.52-.33-.94-.78-1.24-1.35s-.45-1.21-.45-1.92.15-1.36.45-1.93.71-1.02,1.24-1.35c.52-.33,1.12-.5,1.79-.5.51,0,.97.11,1.38.32.41.21.74.5.99.87.25.37.38.79.4,1.27v2.62c-.02.47-.15.89-.4,1.27-.25.37-.57.67-.99.88-.41.21-.88.31-1.4.31Zm.38-1.81c.55,0,.99-.18,1.33-.55.34-.37.51-.83.51-1.39,0-.38-.08-.72-.24-1.02-.16-.3-.38-.53-.64-.7-.27-.17-.59-.25-.96-.25s-.68.08-.95.25c-.27.17-.49.4-.64.69-.16.29-.23.62-.23,1s.08.73.23,1.02c.15.29.37.52.65.69.28.17.59.25.94.25Zm1.72,1.66v-1.95l.33-1.77-.33-1.75v-1.77h1.98v7.24h-1.98Z" style="fill: #0f1f35;"/>
        <path d="m115.38,70.57v-10.83h1.96v10.83h-1.96Zm4.85,0v-4.15c0-.43-.13-.78-.4-1.05s-.61-.4-1.03-.4c-.28,0-.53.06-.75.18s-.39.29-.52.52-.19.48-.19.76l-.76-.4c0-.56.12-1.05.36-1.48.24-.42.57-.76,1-1,.43-.24.92-.36,1.47-.36s1.03.12,1.45.35c.42.23.75.56.99.98.24.42.36.9.36,1.45v4.6h-1.98Z" style="fill: #0f1f35;"/>
        <path d="m123.79,70.57v-10.83h1.96v10.83h-1.96Zm4.85,0v-4.15c0-.43-.13-.78-.4-1.05s-.61-.4-1.03-.4c-.28,0-.53.06-.75.18s-.39.29-.52.52-.19.48-.19.76l-.76-.4c0-.56.12-1.05.36-1.48.24-.42.57-.76,1-1,.43-.24.92-.36,1.47-.36s1.03.12,1.45.35c.42.23.75.56.99.98.24.42.36.9.36,1.45v4.6h-1.98Z" style="fill: #0f1f35;"/>
        <path d="m132.21,70.57v-10.83h1.96v10.83h-1.96Zm4.85,0v-4.15c0-.43-.13-.78-.4-1.05s-.61-.4-1.03-.4c-.28,0-.53.06-.75.18s-.39.29-.52.52-.19.48-.19.76l-.76-.4c0-.56.12-1.05.36-1.48.24-.42.57-.76,1-1,.43-.24.92-.36,1.47-.36s1.03.12,1.45.35c.42.23.75.56.99.98.24.42.36.9.36,1.45v4.6h-1.98Z" style="fill: #0f1f35;"/>
        <path d="m143.54,70.57v-7.24h1.96v7.24h-1.96Zm4.7,0v-4.27c0-.42-.13-.75-.39-.98-.26-.23-.58-.35-.97-.35-.26,0-.49.05-.7.16s-.37.26-.49.46-.19.44-.19.73l-.76-.39c0-.56.12-1.04.37-1.45.24-.41.58-.73,1-.95.42-.23.89-.34,1.42-.34.5,0,.95.11,1.36.34.41.22.73.54.97.94.24.4.36.89.36,1.45v4.66h-1.98Zm4.72,0v-4.27c0-.42-.13-.75-.39-.98-.26-.23-.58-.35-.96-.35-.27,0-.51.05-.71.16-.2.1-.37.26-.49.46s-.19.44-.19.73l-1.12-.28c.03-.59.18-1.09.46-1.51.27-.42.63-.75,1.07-.98s.93-.35,1.47-.35,1.02.11,1.45.34c.43.22.77.55,1.03.97.25.42.38.92.38,1.51v4.57h-1.99Z" style="fill: #0f1f35;"/>
        <path d="m158.8,70.63l-3.04-7.29h2.16l1.99,5.57h-.72l2.08-5.57h2.16l-3.24,7.29h-1.39Zm-2.02,2.98l2.22-4.67,1.2,1.69-1.32,2.98h-2.1Z" style="fill: #0f1f35;"/>
        <path d="m170.77,70.73c-.76,0-1.44-.17-2.03-.49-.59-.33-1.06-.78-1.4-1.35-.34-.57-.51-1.22-.51-1.95s.17-1.36.5-1.93c.33-.57.79-1.02,1.37-1.35.58-.33,1.23-.49,1.95-.49.68,0,1.29.16,1.83.46s.96.74,1.26,1.29c.3.55.45,1.17.45,1.87,0,.13,0,.26-.02.4s-.04.28-.07.44l-6.1.02v-1.47h5.18s-.81.6-.81.6c-.01-.43-.08-.79-.23-1.08-.14-.29-.33-.51-.58-.66-.25-.15-.56-.23-.93-.23-.39,0-.73.08-1.02.25s-.51.41-.67.73c-.15.31-.23.69-.23,1.12s.08.82.25,1.15c.17.32.4.57.71.74s.67.25,1.08.25c.37,0,.7-.06,1-.18.3-.12.56-.31.78-.57l1.17,1.17c-.37.42-.8.73-1.3.94-.5.21-1.04.31-1.63.31Z" style="fill: #0f1f35;"/>
        <path d="m177.69,70.63l-3.04-7.29h2.16l1.99,5.57h-.72l2.08-5.57h2.16l-3.24,7.29h-1.39Zm-2.02,2.98l2.22-4.67,1.2,1.69-1.32,2.98h-2.1Z" style="fill: #0f1f35;"/>
        <path d="m186.44,70.73c-.76,0-1.44-.17-2.03-.49-.59-.33-1.06-.78-1.4-1.35-.34-.57-.51-1.22-.51-1.95s.17-1.36.5-1.93c.33-.57.79-1.02,1.37-1.35.58-.33,1.23-.49,1.95-.49.68,0,1.29.16,1.83.46s.96.74,1.26,1.29c.3.55.45,1.17.45,1.87,0,.13,0,.26-.02.4s-.04.28-.07.44l-6.1.02v-1.47h5.18s-.81.6-.81.6c-.01-.43-.08-.79-.23-1.08-.14-.29-.33-.51-.58-.66-.25-.15-.56-.23-.93-.23-.39,0-.73.08-1.02.25s-.51.41-.67.73c-.15.31-.23.69-.23,1.12s.08.82.25,1.15c.17.32.4.57.71.74s.67.25,1.08.25c.37,0,.7-.06,1-.18.3-.12.56-.31.78-.57l1.17,1.17c-.37.42-.8.73-1.3.94-.5.21-1.04.31-1.63.31Z" style="fill: #0f1f35;"/>
        <path d="m193.59,70.73c-.42,0-.83-.05-1.22-.16-.39-.11-.76-.26-1.09-.46-.33-.2-.61-.45-.85-.73l1.18-1.18c.24.29.52.5.85.64s.69.21,1.08.21c.32,0,.56-.05.73-.14s.25-.23.25-.4c0-.2-.09-.35-.27-.46-.18-.11-.41-.2-.68-.28-.28-.08-.57-.17-.88-.25s-.6-.21-.88-.37c-.27-.15-.5-.37-.68-.65s-.27-.64-.27-1.08.11-.86.34-1.21c.23-.34.55-.61.97-.79.42-.19.91-.28,1.48-.28.6,0,1.14.1,1.62.31.48.21.89.52,1.21.94l-1.18,1.2c-.22-.26-.47-.45-.74-.58-.28-.12-.57-.19-.88-.19s-.52.04-.67.13c-.15.09-.22.21-.22.37,0,.18.08.32.25.41.17.1.39.18.67.26.28.08.57.17.88.26s.59.23.87.4.5.39.67.67.26.64.26,1.08c0,.71-.25,1.27-.76,1.69-.51.42-1.2.62-2.07.62Z" style="fill: #0f1f35;"/>
      </g>
    </g>
  </g>
</svg>