<?xml version="1.0" encoding="UTF-8"?>
<svg id="Layer_1" data-name="Layer 1" xmlns="http://www.w3.org/2000/svg" viewBox="0 0 303.95 100">
  <g>
    <g>
      <path d="m110.24,54.03l-7.11-16.13h4.81l5.11,13.29h-2.37l5.11-13.29h4.68l-7.08,16.13h-3.14Z" style="fill: #0f1f35;"/>
      <path d="m124.67,35.29c-.71,0-1.3-.24-1.77-.72-.47-.48-.7-1.07-.7-1.79s.23-1.28.7-1.77c.47-.49,1.06-.74,1.77-.74s1.33.25,1.79.74c.46.49.68,1.08.68,1.77s-.23,1.31-.68,1.79c-.46.48-1.05.72-1.79.72Zm-2.24,18.74v-16.13h4.44v16.13h-4.44Z" style="fill: #0f1f35;"/>
      <path d="m130.75,54.03v-16.13h4.38v16.13h-4.38Zm10.82,0v-9.25c0-.96-.3-1.74-.9-2.34-.6-.6-1.37-.9-2.3-.9-.62,0-1.18.13-1.67.4-.49.27-.87.65-1.15,1.15s-.42,1.06-.42,1.69l-1.7-.9c0-1.25.27-2.34.82-3.29s1.3-1.69,2.27-2.22c.97-.54,2.06-.8,3.29-.8s2.27.29,3.19.88c.92.59,1.65,1.36,2.19,2.3.53.95.8,1.95.8,3.02v10.25h-4.41Z" style="fill: #0f1f35;"/>
      <path d="m157.23,54.39c-1.69,0-3.2-.37-4.53-1.1-1.33-.74-2.37-1.74-3.12-3.01-.76-1.27-1.14-2.72-1.14-4.34s.37-3.04,1.12-4.31c.75-1.27,1.76-2.27,3.06-3.01,1.29-.73,2.74-1.1,4.34-1.1,1.51,0,2.87.34,4.07,1.04s2.14,1.65,2.81,2.87,1,2.62,1,4.17c0,.29-.01.58-.03.88-.02.3-.08.63-.17.99l-13.59.03v-3.27l11.56-.03-1.8,1.37c-.02-.96-.19-1.76-.5-2.41-.31-.65-.75-1.13-1.3-1.47s-1.25-.5-2.07-.5c-.87,0-1.63.19-2.27.57-.65.38-1.14.92-1.49,1.62-.34.7-.52,1.53-.52,2.49s.18,1.83.55,2.56c.37.72.9,1.27,1.59,1.65.69.38,1.49.57,2.4.57.82,0,1.57-.13,2.24-.4.67-.27,1.25-.69,1.74-1.27l2.61,2.6c-.82.94-1.79,1.64-2.91,2.1s-2.33.7-3.64.7Z" style="fill: #0f1f35;"/>
      <path d="m165.98,41.74v-3.84h12.89v3.84h-12.89Zm3.71,12.29v-17.87c0-1.27.28-2.41.85-3.41.57-1,1.36-1.79,2.39-2.37s2.23-.87,3.61-.87c1.05,0,1.95.17,2.71.52.76.35,1.45.85,2.07,1.52l-2.8,2.77c-.22-.25-.48-.43-.79-.57s-.67-.2-1.12-.2c-.8,0-1.42.22-1.85.65s-.65,1.05-.65,1.85v17.97h-4.41Z" style="fill: #0f1f35;"/>
      <path d="m181.61,54.03v-24.15h4.38v24.15h-4.38Z" style="fill: #0f1f35;"/>
      <path d="m197.41,54.39c-1.63,0-3.09-.37-4.39-1.12-1.3-.75-2.33-1.76-3.09-3.04-.76-1.28-1.14-2.72-1.14-4.32s.38-3,1.14-4.26c.76-1.26,1.79-2.26,3.09-3.01,1.3-.75,2.77-1.12,4.39-1.12s3.12.37,4.42,1.1c1.3.74,2.34,1.74,3.11,3.01.77,1.27,1.15,2.69,1.15,4.28s-.38,3.02-1.13,4.31c-.76,1.29-1.79,2.31-3.11,3.06-1.31.75-2.79,1.12-4.44,1.12Zm0-4.11c.82,0,1.55-.19,2.19-.57.63-.38,1.12-.89,1.47-1.54.35-.65.52-1.39.52-2.24s-.18-1.59-.55-2.24c-.37-.65-.86-1.15-1.47-1.52-.61-.37-1.33-.55-2.15-.55s-1.51.18-2.14.55c-.62.37-1.11.87-1.45,1.52-.35.65-.52,1.39-.52,2.24s.17,1.59.52,2.24c.34.65.83,1.16,1.45,1.54.62.38,1.34.57,2.14.57Z" style="fill: #0f1f35;"/>
      <path d="m212.77,54.03l-6.01-16.13h4.41l3.91,11.72-1.3.03,4.04-11.76h3.14l4.07,11.76-1.3-.03,3.91-11.72h4.41l-6.01,16.13h-3.17l-4.04-11.12h1.24l-4.11,11.12h-3.17Z" style="fill: #0f1f35;"/>
      <path d="m241.53,54.39c-1.69,0-3.2-.37-4.53-1.1-1.33-.74-2.37-1.74-3.12-3.01-.76-1.27-1.14-2.72-1.14-4.34s.37-3.04,1.12-4.31c.75-1.27,1.76-2.27,3.06-3.01,1.29-.73,2.74-1.1,4.34-1.1,1.51,0,2.87.34,4.07,1.04s2.14,1.65,2.81,2.87,1,2.62,1,4.17c0,.29-.01.58-.03.88-.02.3-.08.63-.17.99l-13.59.03v-3.27l11.56-.03-1.8,1.37c-.02-.96-.19-1.76-.5-2.41-.31-.65-.75-1.13-1.3-1.47s-1.25-.5-2.07-.5c-.87,0-1.63.19-2.27.57-.65.38-1.14.92-1.49,1.62-.34.7-.52,1.53-.52,2.49s.18,1.83.55,2.56c.37.72.9,1.27,1.59,1.65.69.38,1.49.57,2.4.57.82,0,1.57-.13,2.24-.4.67-.27,1.25-.69,1.74-1.27l2.61,2.6c-.82.94-1.79,1.64-2.91,2.1s-2.33.7-3.64.7Z" style="fill: #0f1f35;"/>
      <path d="m251.88,54.03v-16.13h4.38v16.13h-4.38Zm4.38-8.88l-1.7-1.17c.2-1.98.78-3.54,1.74-4.69.96-1.15,2.34-1.72,4.14-1.72.8,0,1.51.13,2.12.38.61.26,1.17.67,1.69,1.25l-2.74,3.17c-.25-.29-.54-.5-.88-.62-.35-.12-.74-.18-1.19-.18-.94,0-1.7.29-2.29.87s-.88,1.48-.88,2.71Z" style="fill: #0f1f35;"/>
    </g>
    <g>
      <path d="m105.95,65.05v-1.72h5.35v1.72h-5.35Zm1.69,5.51v-10.25h1.96v10.25h-1.96Z" style="fill: #0f1f35;"/>
      <path d="m112.41,70.57v-10.83h1.96v10.83h-1.96Zm4.85,0v-4.15c0-.43-.13-.78-.4-1.05s-.61-.4-1.03-.4c-.28,0-.53.06-.75.18s-.39.29-.52.52-.19.48-.19.76l-.76-.4c0-.56.12-1.05.36-1.48.24-.42.57-.76,1-1,.43-.24.92-.36,1.47-.36s1.03.12,1.45.35c.42.23.75.56.99.98.24.42.36.9.36,1.45v4.6h-1.98Z" style="fill: #0f1f35;"/>
      <path d="m124.29,70.73c-.76,0-1.44-.17-2.03-.49-.59-.33-1.06-.78-1.4-1.35-.34-.57-.51-1.22-.51-1.95s.17-1.36.5-1.93c.33-.57.79-1.02,1.37-1.35.58-.33,1.23-.49,1.95-.49.68,0,1.29.16,1.83.46s.96.74,1.26,1.29c.3.55.45,1.17.45,1.87,0,.13,0,.26-.02.4s-.04.28-.07.44l-6.1.02v-1.47h5.18s-.81.6-.81.6c-.01-.43-.08-.79-.23-1.08-.14-.29-.33-.51-.58-.66-.25-.15-.56-.23-.93-.23-.39,0-.73.09-1.02.25-.29.17-.51.41-.67.73-.15.31-.23.69-.23,1.12s.08.82.25,1.15c.17.32.4.57.71.74s.67.25,1.08.25c.37,0,.7-.06,1-.18.3-.12.56-.31.78-.57l1.17,1.17c-.37.42-.8.73-1.3.94-.5.21-1.04.31-1.63.31Z" style="fill: #0f1f35;"/>
      <path d="m135.24,70.73c-.73,0-1.39-.17-1.98-.5-.59-.33-1.05-.79-1.39-1.36-.34-.57-.51-1.21-.51-1.91s.17-1.37.51-1.94c.34-.57.8-1.03,1.39-1.36.59-.33,1.25-.49,1.99-.49.57,0,1.09.1,1.57.31.48.2.9.51,1.26.91l-1.29,1.29c-.18-.22-.4-.38-.67-.49-.27-.11-.56-.17-.88-.17-.36,0-.68.08-.97.25-.29.17-.51.39-.67.68s-.24.62-.24,1,.08.71.24,1c.16.29.38.52.67.69.28.17.61.25.97.25.33,0,.62-.06.88-.17.26-.12.49-.28.69-.5l1.26,1.27c-.35.4-.77.71-1.25.92-.49.21-1.02.32-1.6.32Z" style="fill: #0f1f35;"/>
      <path d="m142.59,70.73c-.73,0-1.39-.17-1.97-.5-.58-.33-1.05-.79-1.39-1.36-.34-.57-.51-1.22-.51-1.94s.17-1.35.51-1.91c.34-.56.8-1.01,1.39-1.35.58-.33,1.24-.5,1.97-.5s1.4.17,1.98.49c.58.33,1.05.78,1.39,1.35.34.57.52,1.21.52,1.92s-.17,1.35-.51,1.93c-.34.58-.8,1.04-1.39,1.37-.59.33-1.25.5-1.99.5Zm0-1.84c.37,0,.7-.08.98-.25.29-.17.5-.4.66-.69.16-.29.23-.62.23-1s-.08-.71-.25-1-.38-.52-.66-.68-.6-.25-.97-.25-.68.08-.96.25c-.28.17-.5.39-.65.68-.15.29-.23.62-.23,1s.08.71.23,1c.16.29.37.52.65.69.28.17.6.25.96.25Z" style="fill: #0f1f35;"/>
      <path d="m151.12,70.73c-.73,0-1.39-.17-1.97-.5-.58-.33-1.05-.79-1.39-1.36-.34-.57-.51-1.22-.51-1.94s.17-1.35.51-1.91c.34-.56.8-1.01,1.39-1.35.58-.33,1.24-.5,1.97-.5s1.4.17,1.98.49c.58.33,1.05.78,1.39,1.35.34.57.52,1.21.52,1.92s-.17,1.35-.51,1.93c-.34.58-.8,1.04-1.39,1.37-.59.33-1.25.5-1.99.5Zm0-1.84c.37,0,.7-.08.98-.25.29-.17.5-.4.66-.69.16-.29.23-.62.23-1s-.08-.71-.25-1-.38-.52-.66-.68-.6-.25-.97-.25-.68.08-.96.25c-.28.17-.5.39-.65.68-.15.29-.23.62-.23,1s.08.71.23,1c.16.29.37.52.65.69.28.17.6.25.96.25Z" style="fill: #0f1f35;"/>
      <path d="m156.26,70.57v-10.83h1.96v10.83h-1.96Z" style="fill: #0f1f35;"/>
      <path d="m163.42,70.73c-.76,0-1.44-.17-2.03-.49-.59-.33-1.06-.78-1.4-1.35-.34-.57-.51-1.22-.51-1.95s.17-1.36.5-1.93c.33-.57.79-1.02,1.37-1.35.58-.33,1.23-.49,1.95-.49.68,0,1.29.16,1.83.46s.96.74,1.26,1.29c.3.55.45,1.17.45,1.87,0,.13,0,.26-.02.4s-.04.28-.07.44l-6.1.02v-1.47h5.18s-.81.6-.81.6c-.01-.43-.08-.79-.23-1.08-.14-.29-.33-.51-.58-.66-.25-.15-.56-.23-.93-.23-.39,0-.73.09-1.02.25-.29.17-.51.41-.67.73-.15.31-.23.69-.23,1.12s.08.82.25,1.15c.17.32.4.57.71.74s.67.25,1.08.25c.37,0,.7-.06,1-.18.3-.12.56-.31.78-.57l1.17,1.17c-.37.42-.8.73-1.3.94-.5.21-1.04.31-1.63.31Z" style="fill: #0f1f35;"/>
      <path d="m168.06,70.57v-7.24h1.96v7.24h-1.96Zm1.96-3.98l-.76-.52c.09-.89.35-1.59.78-2.11.43-.51,1.05-.77,1.86-.77.36,0,.68.06.95.17.27.12.53.3.76.56l-1.23,1.42c-.11-.13-.24-.22-.4-.28s-.33-.08-.53-.08c-.42,0-.76.13-1.03.39s-.4.66-.4,1.21Z" style="fill: #0f1f35;"/>
      <path d="m176.75,65.05v-1.72h5.78v1.72h-5.78Zm1.66,5.51v-8.01c0-.57.13-1.08.38-1.53.25-.45.61-.8,1.07-1.06.46-.26,1-.39,1.62-.39.47,0,.87.08,1.21.23.34.16.65.38.93.68l-1.26,1.24c-.1-.11-.22-.19-.35-.25-.13-.06-.3-.09-.5-.09-.36,0-.64.1-.83.29s-.29.47-.29.83v8.06h-1.98Z" style="fill: #0f1f35;"/>
      <path d="m187.22,70.73c-.76,0-1.44-.17-2.03-.49-.59-.33-1.06-.78-1.4-1.35-.34-.57-.51-1.22-.51-1.95s.17-1.36.5-1.93c.33-.57.79-1.02,1.37-1.35.58-.33,1.23-.49,1.95-.49.68,0,1.29.16,1.83.46s.96.74,1.26,1.29c.3.55.45,1.17.45,1.87,0,.13,0,.26-.02.4s-.04.28-.07.44l-6.1.02v-1.47h5.18s-.81.6-.81.6c-.01-.43-.08-.79-.23-1.08-.14-.29-.33-.51-.58-.66-.25-.15-.56-.23-.93-.23-.39,0-.73.09-1.02.25-.29.17-.51.41-.67.73-.15.31-.23.69-.23,1.12s.08.82.25,1.15c.17.32.4.57.71.74s.67.25,1.08.25c.37,0,.7-.06,1-.18.3-.12.56-.31.78-.57l1.17,1.17c-.37.42-.8.73-1.3.94-.5.21-1.04.31-1.63.31Z" style="fill: #0f1f35;"/>
      <path d="m191.86,70.57v-7.24h1.96v7.24h-1.96Zm1.96-3.98l-.76-.52c.09-.89.35-1.59.78-2.11.43-.51,1.05-.77,1.86-.77.36,0,.68.06.95.17.27.12.53.3.76.56l-1.23,1.42c-.11-.13-.24-.22-.4-.28s-.33-.08-.53-.08c-.42,0-.76.13-1.03.39s-.4.66-.4,1.21Z" style="fill: #0f1f35;"/>
      <path d="m198.06,70.57v-7.24h1.96v7.24h-1.96Zm4.85,0v-4.15c0-.43-.13-.78-.4-1.05s-.61-.4-1.03-.4c-.28,0-.53.06-.75.18s-.39.29-.52.52-.19.48-.19.76l-.76-.4c0-.56.12-1.05.37-1.48.24-.42.58-.76,1.02-1,.43-.24.93-.36,1.48-.36s1.02.13,1.43.4c.41.26.74.61.98,1.03.24.42.36.88.36,1.36v4.6h-1.98Z" style="fill: #0f1f35;"/>
      <path d="m205.76,65.05v-1.72h5.78v1.72h-5.78Zm1.66,5.51v-8.01c0-.57.13-1.08.38-1.53.25-.45.61-.8,1.07-1.06.46-.26,1-.39,1.62-.39.47,0,.87.08,1.21.23.34.16.65.38.93.68l-1.26,1.24c-.1-.11-.22-.19-.35-.25-.13-.06-.3-.09-.5-.09-.36,0-.64.1-.83.29s-.29.47-.29.83v8.06h-1.98Z" style="fill: #0f1f35;"/>
      <path d="m212.78,70.57v-10.83h1.96v10.83h-1.96Z" style="fill: #0f1f35;"/>
      <path d="m219.86,70.73c-.73,0-1.39-.17-1.97-.5-.58-.33-1.05-.79-1.39-1.36-.34-.57-.51-1.22-.51-1.94s.17-1.35.51-1.91c.34-.56.8-1.01,1.39-1.35.58-.33,1.24-.5,1.97-.5s1.4.17,1.98.49c.58.33,1.05.78,1.39,1.35.34.57.52,1.21.52,1.92s-.17,1.35-.51,1.93c-.34.58-.8,1.04-1.39,1.37-.59.33-1.25.5-1.99.5Zm0-1.84c.37,0,.7-.08.98-.25.29-.17.5-.4.66-.69.16-.29.23-.62.23-1s-.08-.71-.25-1-.38-.52-.66-.68-.6-.25-.97-.25-.68.08-.96.25c-.28.17-.5.39-.65.68-.15.29-.23.62-.23,1s.08.71.23,1c.16.29.37.52.65.69.28.17.6.25.96.25Z" style="fill: #0f1f35;"/>
      <path d="m226.75,70.57l-2.7-7.24h1.98l1.75,5.26h-.58s1.81-5.26,1.81-5.26h1.41l1.83,5.27h-.58s1.75-5.27,1.75-5.27h1.98l-2.7,7.24h-1.42l-1.81-4.99h.55l-1.84,4.99h-1.42Z" style="fill: #0f1f35;"/>
      <path d="m239.65,70.73c-.76,0-1.44-.17-2.03-.49-.59-.33-1.06-.78-1.4-1.35-.34-.57-.51-1.22-.51-1.95s.17-1.36.5-1.93c.33-.57.79-1.02,1.37-1.35.58-.33,1.23-.49,1.95-.49.68,0,1.29.16,1.83.46s.96.74,1.26,1.29c.3.55.45,1.17.45,1.87,0,.13,0,.26-.02.4s-.04.28-.07.44l-6.1.02v-1.47h5.18s-.81.6-.81.6c-.01-.43-.08-.79-.23-1.08-.14-.29-.33-.51-.58-.66-.25-.15-.56-.23-.93-.23-.39,0-.73.09-1.02.25-.29.17-.51.41-.67.73-.15.31-.23.69-.23,1.12s.08.82.25,1.15c.17.32.4.57.71.74s.67.25,1.08.25c.37,0,.7-.06,1-.18.3-.12.56-.31.78-.57l1.17,1.17c-.37.42-.8.73-1.3.94-.5.21-1.04.31-1.63.31Z" style="fill: #0f1f35;"/>
      <path d="m244.29,70.57v-7.24h1.96v7.24h-1.96Zm1.96-3.98l-.76-.52c.09-.89.35-1.59.78-2.11.43-.51,1.05-.77,1.86-.77.36,0,.68.06.95.17.27.12.53.3.76.56l-1.23,1.42c-.11-.13-.24-.22-.4-.28s-.33-.08-.53-.08c-.42,0-.76.13-1.03.39s-.4.66-.4,1.21Z" style="fill: #0f1f35;"/>
    </g>
  </g>
  <g>
    <path d="m76.08,27.65c-3.19,2.26-5.68,5.5-7.02,9.38l-8.98,25.87-5.36-15.78c-.53-1.53-1.23-2.96-2.09-4.27-.73.96-1.84,1.47-3.23,1.47-1.22,0-2.4-.4-3.03-.75-.06-.04-.13-.08-.18-.13-.17-.16-.31-.32-.47-.49-.02.62-.13,1.21-.47,1.64-1.12,1.79-2.65,2.45-3.77,2.77l10.15,27.28c1.1,2.95,3.52,5.33,6.59,6.01,2.59.57,5.1-.04,7.07-1.4,1.46-1.04,2.63-2.5,3.29-4.26l.87-2.38c-.71.22-1.36.34-1.99.34-.55,0-1.07-.09-1.56-.27-1.5-.54-2.61-1.77-3.06-3.38-.47-1.71-.09-3.29,1.03-4.38-.25-.16-.48-.33-.69-.53-1.73-1.64-2.33-4.51-1.33-6.24.44-1.58,1.69-2.48,3.45-2.48,1.26,0,2.36.43,2.68.57.06.04.13.07.19.12.14.11.3.22.45.33.18.13.37.26.55.4-.04-.82.12-1.54.46-2.06.96-1.72,2.19-2.24,3.28-2.6.54-.17,1.02-.26,1.49-.26.79,0,1.5.24,2.28.76l10.57-28.85c-4.1,0-7.98,1.3-11.17,3.57Z" style="fill: #0f1f35;"/>
    <g style="opacity: .99;">
      <path d="m44.53,44.09c-.95,1.54-2.27,2.15-3.47,2.46-1.52.4-2.85-.04-3.92-.94-1.13-.94-2.06-2.26-1.71-3.79.54-1.16,1.97-1.77,3.11-2.68.66-.52,1.31-1.04,1.83-1.69.98.48,2.06.23,2.85-.38.31.8.72,1.8,1.07,2.81.57,1.67.78,3.49.22,4.2Z" style="fill: #0f1f35;"/>
      <path d="m39.86,36.97c-.59.51-1.28,1.13-2,1.7-1.39,1.1-2.94,2.03-3.79,1.73-1.78-.39-2.93-1.34-3.63-2.35-.88-1.29-.76-2.79-.27-4.12.51-1.37,1.45-2.63,3.01-2.79,1.27.13,2.41,1.07,3.64,1.85.82.51,1.66,1,2.61,1.23-.32.84-.26,1.84.42,2.76Z" style="fill: #0f1f35;"/>
      <path d="m42.47,29.53c-.25.92-.56,1.83-.57,2.78-.9.02-1.73.57-2.22,1.36-.75-.42-1.73-.94-2.62-1.56-1.45-1.02-2.34-2.29-2.31-3.2-.13-1.81.15-3.08.92-4.03.99-1.22,2.36-1.84,3.77-1.75,1.47.11,3,.83,3.6,2.28.24,1.26-.19,2.7-.58,4.11Z" style="fill: #0f1f35;"/>
      <path d="m51.11,33.1c-1.14.57-2.45.35-3.91.35-.93,0-1.9.3-2.83.74-.12-.44-.38-.87-.81-1.26-.35-.29-.72-.48-1.08-.56.19-.83.39-1.91.74-2.92.58-1.67,1.5-3.16,2.38-3.37,1.71-.62,3.15-.55,4.28-.06,1.44.62,2.19,1.95,2.48,3.33.31,1.44-.03,2.76-1.25,3.74Z" style="fill: #0f1f35;"/>
      <path d="m52.4,41.38c-1.02,2.93-4.42,2.06-5.59,1.4-.94-.87-1.42-2.01-1.92-3.38-.34-.92-.69-1.83-1.31-2.61.57-.57.93-1.35.87-2.15.47.03,1.06.08,1.82.04,2.43-.78,4.43-.31,5.56,1.01,1.4,1.61,1.71,4.27.57,5.7Z" style="fill: #0f1f35;"/>
    </g>
    <g style="opacity: .99;">
      <path d="m78.12,56.84c-.43,1.07-1.43,1.77-2.41,2.65-.56.49-1.12.99-1.56,1.59-1.01-.42-2.05-.06-2.74.65-.22-.75-.5-1.72-.89-2.66-.59-1.48-.59-2.89-.13-3.55.79-1.45,1.74-1.88,2.79-2.23,1.35-.44,2.24-.18,3.25.57,1.07.8,1.94,1.59,1.69,2.98Z" style="fill: #0f1f35;"/>
      <path d="m83.2,63.41c-.37,1.28-.8,2.69-2.19,2.95-1.15-.02-2.43-.58-3.6-1.19-.76-.4-1.5-.85-2.32-1.04.29-.76.23-1.66-.34-2.44.49-.51,1.09-1.12,1.71-1.7,1.17-1.09,2.37-2.58,3.16-2.37,1.62.22,2.51,1.45,3.21,2.32.89,1.1.73,2.24.38,3.47Z" style="fill: #0f1f35;"/>
      <path d="m79.64,72.03c-.77,1.18-2.19,1.58-3.47,1.62-1.33.04-3.03-.22-3.7-1.45-.33-1.1.17-2.56.39-3.86.14-.84.35-1.71.29-2.57.77-.11,1.43-.64,1.79-1.34.69.35,1.59.79,2.44,1.27,1.39.77,2.5,1.63,2.55,2.45.29,1.62.31,2.94-.3,3.87Z" style="fill: #0f1f35;"/>
      <path d="m72.77,65.79c-.09.78-.16,1.8-.43,2.75-.43,1.54-1.57,2.68-2.35,2.91-1.5.66-2.73.77-3.77.39-1.34-.48-2.15-1.55-2.5-2.78-.36-1.28-.18-2.65.87-3.59,1-.58,2.3-.11,3.62-.19.84-.05,1.74-.39,2.57-.85.15.34.41.67.8.96.4.27.81.39,1.19.4Z" style="fill: #0f1f35;"/>
      <path d="m71.19,61.96c-.5.63-.75,1.45-.51,2.23-.39.06-.9.09-1.6.21-2.12.92-4.14.42-5.27-.66-1.4-1.32-2.01-3.85-1.11-5.23.66-2.72,3.82-1.91,4.93-1.44.92.7,1.93,1.27,2.5,2.46.39.81.55,1.72,1.06,2.43Z" style="fill: #0f1f35;"/>
    </g>
  </g>
</svg>