<?xml version="1.0" encoding="UTF-8"?>
<svg id="Layer_1" data-name="Layer 1" xmlns="http://www.w3.org/2000/svg" viewBox="0 0 100 100">
  <path d="m67.65,24.88c-3.55,2.52-6.33,6.13-7.82,10.45l-10,28.82-5.97-17.58c-.59-1.7-1.37-3.3-2.33-4.76-.81,1.07-2.05,1.64-3.6,1.64-1.36,0-2.67-.45-3.37-.84-.07-.04-.14-.09-.2-.14-.19-.18-.35-.36-.52-.55-.02.69-.15,1.35-.52,1.83-1.25,1.99-2.95,2.73-4.2,3.09l11.31,30.39c1.22,3.29,3.92,5.94,7.34,6.7,2.88.63,5.68-.04,7.88-1.56,1.63-1.16,2.93-2.79,3.66-4.75l.97-2.65c-.79.25-1.52.38-2.22.38-.61,0-1.19-.1-1.74-.3-1.67-.6-2.91-1.97-3.41-3.77-.52-1.91-.1-3.67,1.15-4.88-.28-.18-.54-.37-.77-.59-1.93-1.83-2.6-5.02-1.48-6.95.49-1.76,1.88-2.76,3.84-2.76,1.4,0,2.63.48,2.98.63.07.04.14.08.21.13.16.12.33.25.5.37.2.14.41.29.61.45-.04-.91.13-1.72.51-2.3,1.07-1.92,2.44-2.5,3.65-2.9.6-.19,1.14-.29,1.66-.29.88,0,1.67.27,2.54.85l11.78-32.14c-4.57,0-8.89,1.45-12.44,3.98Z" style="fill: #0f1f35;"/>
  <g style="opacity: .99;">
    <path d="m32.5,43.19c-1.06,1.72-2.53,2.39-3.86,2.74-1.69.45-3.17-.04-4.37-1.05-1.26-1.05-2.3-2.52-1.9-4.22.6-1.29,2.19-1.97,3.47-2.98.73-.58,1.46-1.16,2.04-1.88,1.09.53,2.29.26,3.18-.42.34.89.8,2,1.19,3.13.63,1.86.87,3.89.25,4.68Z" style="fill: #0f1f35;"/>
    <path d="m27.3,35.26c-.66.57-1.43,1.26-2.23,1.89-1.55,1.22-3.28,2.26-4.22,1.93-1.98-.43-3.26-1.49-4.04-2.62-.98-1.44-.85-3.11-.3-4.59.57-1.53,1.62-2.93,3.35-3.11,1.42.14,2.68,1.19,4.06,2.06.91.57,1.85,1.11,2.91,1.37-.36.94-.29,2.05.47,3.07Z" style="fill: #0f1f35;"/>
    <path d="m30.21,26.97c-.28,1.02-.62,2.04-.63,3.1-1,.02-1.93.64-2.47,1.52-.84-.47-1.93-1.05-2.92-1.74-1.61-1.14-2.61-2.55-2.57-3.56-.15-2.02.17-3.43,1.03-4.49,1.1-1.36,2.63-2.05,4.2-1.95,1.64.12,3.34.93,4.01,2.54.27,1.4-.21,3.01-.65,4.58Z" style="fill: #0f1f35;"/>
    <path d="m39.83,30.95c-1.27.64-2.73.39-4.36.39-1.04,0-2.12.33-3.15.82-.13-.49-.42-.97-.9-1.4-.39-.32-.8-.53-1.2-.62.21-.93.43-2.13.82-3.25.65-1.86,1.67-3.52,2.65-3.75,1.9-.69,3.51-.61,4.77-.07,1.6.69,2.44,2.17,2.76,3.71.34,1.6-.03,3.08-1.39,4.17Z" style="fill: #0f1f35;"/>
    <path d="m41.27,40.17c-1.14,3.26-4.92,2.29-6.23,1.56-1.05-.97-1.58-2.24-2.14-3.77-.38-1.02-.77-2.04-1.46-2.91.64-.64,1.04-1.5.97-2.39.52.03,1.18.09,2.03.04,2.71-.87,4.93-.34,6.19,1.12,1.56,1.79,1.91,4.76.64,6.35Z" style="fill: #0f1f35;"/>
  </g>
  <g style="opacity: .99;">
    <path d="m69.92,57.39c-.48,1.19-1.59,1.97-2.69,2.95-.62.55-1.25,1.1-1.74,1.77-1.12-.47-2.28-.07-3.05.72-.24-.83-.56-1.92-.99-2.96-.66-1.65-.66-3.22-.14-3.96.88-1.61,1.94-2.09,3.11-2.48,1.5-.49,2.49-.2,3.62.64,1.19.89,2.16,1.77,1.88,3.32Z" style="fill: #0f1f35;"/>
    <path d="m75.58,64.71c-.41,1.43-.89,3-2.44,3.29-1.28-.02-2.71-.65-4.01-1.33-.85-.45-1.67-.95-2.59-1.16.32-.85.26-1.85-.38-2.72.55-.57,1.21-1.25,1.9-1.89,1.3-1.21,2.64-2.87,3.52-2.64,1.81.24,2.8,1.62,3.58,2.59.99,1.22.81,2.5.42,3.86Z" style="fill: #0f1f35;"/>
    <path d="m71.61,74.32c-.86,1.32-2.44,1.76-3.86,1.81-1.48.05-3.37-.24-4.12-1.62-.37-1.23.19-2.85.44-4.3.16-.94.39-1.9.32-2.86.86-.12,1.59-.71,1.99-1.49.77.39,1.77.88,2.72,1.42,1.55.86,2.78,1.82,2.84,2.73.32,1.8.35,3.28-.33,4.31Z" style="fill: #0f1f35;"/>
    <path d="m63.96,67.37c-.1.87-.18,2-.48,3.06-.48,1.71-1.75,2.98-2.62,3.24-1.67.73-3.04.86-4.2.44-1.49-.53-2.4-1.73-2.78-3.1-.4-1.43-.2-2.95.97-4,1.11-.65,2.56-.12,4.03-.21.94-.06,1.94-.44,2.86-.95.17.38.46.75.89,1.07.45.3.9.44,1.33.45Z" style="fill: #0f1f35;"/>
    <path d="m62.2,63.1c-.56.7-.83,1.62-.57,2.48-.43.07-1,.1-1.78.23-2.36,1.03-4.61.47-5.87-.73-1.56-1.47-2.24-4.29-1.24-5.83.74-3.03,4.25-2.13,5.49-1.6,1.03.78,2.15,1.42,2.79,2.74.44.9.61,1.92,1.18,2.71Z" style="fill: #0f1f35;"/>
  </g>
</svg>